PathFileType	4	(X/Y/Z)	16_2_46_p0_0-430_filt_butterworth.trc
DataRate	CameraRate	NumFrames	NumMarkers	Units	OrigDataRate	OrigDataStartFrame	OrigNumFrames
60.0	60.0	5	27	m	60.0	107	430
Frame#	Time	RHip			RKnee			RAnkle			RBigToe			RSmallToe			RHeel			LHip			LKnee			LAnkle			LBigToe			LSmallToe			LHeel			Neck			Head			Nose			RShoulder			RElbow			RWrist			RThumb			RIndex			RPinky			LShoulder			LElbow			LWrist			LThumb			LIndex			LPinky			
		X1	Y1	Z1	X2	Y2	Z2	X3	Y3	Z3	X4	Y4	Z4	X5	Y5	Z5	X6	Y6	Z6	X7	Y7	Z7	X8	Y8	Z8	X9	Y9	Z9	X10	Y10	Z10	X11	Y11	Z11	X12	Y12	Z12	X13	Y13	Z13	X14	Y14	Z14	X15	Y15	Z15	X16	Y16	Z16	X17	Y17	Z17	X18	Y18	Z18	X19	Y19	Z19	X20	Y20	Z20	X21	Y21	Z21	X22	Y22	Z22	X23	Y23	Z23	X24	Y24	Z24	X25	Y25	Z25	X26	Y26	Z26	X27	Y27	Z27	
107	1.7833333333333334	0.28193143926616204	0.537335154849349	0.5175064383357071	0.2971964301113091	0.6277872246250565	0.9516433859607556	0.29398622958576437	0.7155485376497459	1.369184847593174	0.24089999079784116	0.5213221752604866	1.4045358114703557	0.3271868125287015	0.5465977489981177	1.407726088673712	0.263478564112514	0.811738674516187	1.4291377753711454	0.07195728055190136	0.5397944765234732	0.5178357231980477	0.06570241696476248	0.6198933694672559	0.9357499653394972	0.0900567176908306	0.6929578995221155	1.3358070007450134	0.07175802314318883	0.48362528755477524	1.3745595482722903	0.017048322733056395	0.5399462802774251	1.3752595470394127	0.11064218044982693	0.788876869336593	1.413582860060643	0.17543959470293954	0.46631520812576555	-0.07370662095770034	0.1771855239783418	0.3928324926843462	-0.31420302508223247	0.1726377181228384	0.3743864110099864	-0.1756099877071294	0.3509829723881137	0.4989539447468874	0.021644738222874438	0.3488547558839029	0.3682702622703569	0.28717757938630556	0.21719855437640134	0.2566653650075149	0.4629096291640598	0.195101668126334	0.257453207984475	0.5483634882875554	0.19018590130558127	0.2619075090364211	0.5552091202936065	0.17975202673779894	0.26078484256054413	0.5607316372933508	0.016996921921312393	0.511783131132714	0.0027169442000151383	-0.012191800862242419	0.4232602134238759	0.2743219433154591	0.10575987420944417	0.2514447044711375	0.45324230966675205	0.20616898070483966	0.23504123538938307	0.5235633196995078	0.20124242654981886	0.22911419338498568	0.5323089636968571	0.15251882467147454	0.19452377514724356	0.5413193443028156
108	1.8	0.2815015667914036	0.5380931880764053	0.5196386695010085	0.2974259707542669	0.6275303648725806	0.9503717969292023	0.29398640565373935	0.7157856160129019	1.3694475341853236	0.24040562596634565	0.5198248707268801	1.4042833905336807	0.3271832074075546	0.5465263333095427	1.4075733829909993	0.2634754758462723	0.8109816083378065	1.4284797488683185	0.06917073174985872	0.5427731091858333	0.5201034827855102	0.06577714672343196	0.6199069345872836	0.933464033765584	0.09000691762365129	0.6926773098559703	1.3357712724831057	0.07084452524919224	0.48861764654963585	1.3754965465670033	0.017634777462871513	0.5402611014773472	1.3754531580311609	0.1107926401274335	0.7816309925488995	1.4121263257233614	0.17544402656279823	0.4662496925539611	-0.07373437882209434	0.17722244930282743	0.3928484664844612	-0.3141998515898388	0.17359267650694826	0.36938375288616904	-0.17904845849422038	0.3511149910290249	0.4989513390685739	0.022623789538824594	0.34212323487736596	0.3825992819666874	0.2933555481832102	0.21497584783751938	0.26644541262149746	0.4693768248330377	0.1944651143437288	0.2571814399132104	0.5535814543743653	0.18962508322763566	0.2682840995309782	0.563448156239211	0.18175133481011882	0.2710203092480291	0.5715158076798976	0.017008733190429764	0.5118341989368058	0.002797319564108425	-0.009585801216717491	0.4278057637106834	0.2779480507860208	0.10606006709742802	0.25478597963218563	0.4570117963615976	0.20428335008946202	0.23780930439177278	0.5279382448575061	0.201949034242536	0.237899499020854	0.5369999037944694	0.15173276876658004	0.19813662606235985	0.5503798216086695
109	1.8166666666666669	0.2812133702388076	0.5389989791080951	0.5221844667079003	0.29779917081607526	0.6271533221531302	0.9483503968441191	0.2939654799234178	0.7160605160001503	1.369435839750602	0.24030252499911053	0.519465151047439	1.404197777175742	0.3271737803700553	0.546475435691	1.40740219856217	0.263613110276767	0.8105723421109116	1.4270195376255306	0.06789414947575538	0.5482922429784106	0.523633838449751	0.0658211130333111	0.6198536813914424	0.9323889322606248	0.08994740147467353	0.692427180397181	1.3357069585153312	0.07079465574078493	0.49246950418219837	1.3770798006474778	0.01797881648267076	0.5403857233904503	1.375029053583058	0.11051903827044433	0.7785214648463054	1.4101632877620434	0.1754331703703917	0.46616798848343877	-0.07340596354377343	0.17715153319575672	0.3928074759296187	-0.3141944277102708	0.17430386524118074	0.3654853391944734	-0.18190650186396595	0.35114299259118226	0.4989588310577862	0.022865396025821744	0.3359893310322841	0.40017521089147085	0.29845206322058837	0.21280063380604095	0.27396783266053104	0.47353193954640627	0.19273443366380621	0.2576874205738497	0.5592198998526764	0.1901476456871671	0.273345785815953	0.5713497375134389	0.18356963745232377	0.2768682287070071	0.5795593861580577	0.017016671048880036	0.5118360460133724	0.0028628618714335095	-0.008126964501466839	0.43019330655419663	0.2812570577319486	0.1062796251793569	0.2612953113013767	0.4609981073879422	0.2023307853222299	0.2416748961034709	0.5305836609092576	0.20331797771831792	0.24308214131002823	0.5408551369679243	0.15073619892714368	0.20176184927485624	0.5601693002668835
110	1.8333333333333333	0.2812042964069557	0.5397955599773432	0.5242381039504433	0.2982538784659126	0.6267628349505329	0.9459960937937779	0.2939219397539838	0.7155427488369198	1.36817947644456	0.2403994434907853	0.5197298814050013	1.4041274313460537	0.32715894409880825	0.5464617736868209	1.407305555410744	0.26372255346035806	0.8103673975338617	1.42514736888667	0.06737286974111138	0.5545983283296232	0.5275839634368041	0.06579627088380958	0.6197994662556527	0.9318342105021888	0.08991175130243115	0.6922876920271307	1.3356303506813068	0.07166423769964703	0.4943188291226456	1.379093280025135	0.01805792946088942	0.5404407242620606	1.3746695215695137	0.10953328054705859	0.7792834082895341	1.4086436897900565	0.1754112635378228	0.466095034665384	-0.07253454595055027	0.17710279937800744	0.3927503090400781	-0.3141878800871031	0.17456460219059602	0.36381500747149564	-0.1834178794973133	0.3511220686466258	0.49898071205659233	0.02279780646701595	0.3314428781719823	0.41545904535855677	0.30091267020600565	0.2111022778134028	0.2790753421063945	0.47623472793536015	0.1911576931847962	0.2607990613094874	0.5648716224088003	0.1914315734708702	0.2763485611009178	0.577744100489904	0.1854090057636742	0.27889980367406575	0.5849388422263672	0.01702618642929044	0.511798719922414	0.002898314755510636	-0.0072644872795212916	0.430936762154977	0.2837145779328201	0.10644624544879797	0.2699533182111121	0.46486840811037966	0.20176427150007084	0.24525116093775762	0.532618203271605	0.20495923758281256	0.24699684915721673	0.545645036756723	0.14898310985098984	0.20939393065767245	0.5698148424561468
111	1.85	0.2812893926927237	0.5401882334446914	0.524890632156718	0.2986891196124857	0.6264264770461749	0.943815042537081	0.29391422101805176	0.7128325175577193	1.3648221261765148	0.24086469814356493	0.5212134577480374	1.4041053427859538	0.32714715958948104	0.5464640626476635	1.4072790441797185	0.26375386783112026	0.8102157276751321	1.4237265396363596	0.06712001692880247	0.5593381257993416	0.5303691111632006	0.06572977813861995	0.6198058627714683	0.9314361177643116	0.08994275503278813	0.6922954697533586	1.335500198292193	0.07277493643743618	0.49503704775321244	1.3810389723901693	0.018013085077533006	0.5404964374455202	1.374574780572536	0.10810621080201961	0.7809087362716205	1.4079681199129537	0.17539521405214903	0.4660393447677989	-0.07139142992761117	0.17709096568546154	0.39269818667332085	-0.31417775077253907	0.17455266945849449	0.36366061625596874	-0.18380079440978395	0.35108922372817886	0.49899907222655737	0.02270096873435215	0.32871645220103657	0.42584144457525214	0.3008363851754402	0.21027767188363494	0.2820106917411094	0.478411424124427	0.19033536777627216	0.2646993073181845	0.5701896492739189	0.19285309471354994	0.27729883429824276	0.5827273463788245	0.18734427607709084	0.28044351476398793	0.589188755133381	0.017039172495188944	0.5117570335487637	0.0029087152530236156	-0.00629063999798054	0.4309780828562912	0.2848983254354924	0.10659984792515298	0.2768981889531683	0.46794353750979745	0.2027588175483787	0.24805035931729355	0.5344020383576469	0.20622435419807036	0.25029293196314184	0.5514519008457772	0.14558461050728294	0.22278816873458956	0.5793781437229064
